<?xml version="1.0" encoding="utf-8"?>
<!-- Generator: Adobe Illustrator 16.2.1, SVG Export Plug-In . SVG Version: 6.00 Build 0)  -->
<!DOCTYPE svg PUBLIC "-//W3C//DTD SVG 1.1//EN" "http://www.w3.org/Graphics/SVG/1.1/DTD/svg11.dtd">
<svg version="1.1" id="Layer_1" xmlns="http://www.w3.org/2000/svg" xmlns:xlink="http://www.w3.org/1999/xlink" x="0px" y="0px"
	 width="208.239px" height="30.722px" viewBox="0 0 208.239 30.722" enable-background="new 0 0 208.239 30.722"
	 xml:space="preserve">
<path fill="#FFFFFF" d="M45.918,8.874c-2.595,0-4.437,0.9-5.608,2.699V9.438h-7.095v20.739h7.095V19.064
	c0-2.239,1.464-3.223,2.95-3.223c1.633,0,2.616,1.111,2.616,3.182v11.154h7.45V16.679C53.326,11.909,50.208,8.874,45.918,8.874"/>
<polygon fill="#FFFFFF" points="103.209,18.499 97.328,0.879 86.3,0.879 86.3,30.178 94.252,30.178 94.252,11.845 99.552,30.178 
	103.209,30.178 106.845,30.178 112.145,11.845 112.145,30.178 120.097,30.178 120.097,0.879 109.069,0.879 "/>
<path fill="#FFFFFF" d="M200.831,8.874c-2.344,0-4.08,0.732-5.252,2.197V0h-7.451v30.177h7.451V19.064
	c0-2.28,1.15-3.223,2.594-3.223c1.634,0,2.617,1.111,2.617,3.182v11.154h7.449V16.679C208.239,11.909,205.122,8.874,200.831,8.874"
	/>
<path fill="#FFFFFF" d="M179.608,3.495h-7.45v3.531c0,1.413-1.146,2.412-2.559,2.412h-1.208v6.571h3.767v5.463
	c0,5.085,2.407,8.706,8.308,8.706h5.347v-1.001V27.28v-4.031h-3.421c-1.611,0-2.783-0.689-2.783-2.928v-4.312h4.84h1.364V9.438
	h-6.204V3.495z"/>
<path fill="#FFFFFF" d="M15.486,0.335C6.425,0.335,0,6.781,0,15.528c0,8.749,6.425,15.193,15.486,15.193
	c9.062,0,15.486-6.444,15.486-15.193C30.972,6.781,24.548,0.335,15.486,0.335 M15.486,23.104c-4.269,0-7.22-3.098-7.22-7.577
	c0-4.478,2.951-7.576,7.22-7.576c4.269,0,7.22,3.098,7.22,7.576C22.706,20.007,19.755,23.104,15.486,23.104"/>
<path fill="#FFFFFF" d="M65.816,8.873c-6.382,0-10.777,4.541-10.777,11.113c0,0.704,0.062,1.378,0.166,2.03
	c0.843,5.283,4.998,8.705,10.904,8.705c4.102,0,7.367-1.424,9.376-3.6l-5.107-4.27c-1.13,1.109-2.574,1.675-3.913,1.675
	c-1.967,0-3.223-0.837-3.725-2.511h11.223h2.317c0.084-0.42,0.146-1.508,0.146-2.22C76.405,13.31,72.094,8.873,65.816,8.873
	 M62.761,17.517c0.481-1.611,1.507-2.385,3.097-2.385c1.549,0,2.595,0.774,3.139,2.385H62.761z"/>
<path fill="#FFFFFF" d="M133.691,8.874c-6.413,0-11.149,4.494-11.288,10.652c-0.002,0.091-0.013,0.179-0.013,0.272
	c0,6.299,4.793,10.924,11.301,10.924s11.301-4.625,11.301-10.924c0-0.094-0.011-0.182-0.013-0.272
	C144.84,13.368,140.104,8.874,133.691,8.874 M133.691,23.794c-2.135,0-3.683-1.674-3.683-3.996c0-0.094,0.006-0.182,0.011-0.272
	c0.116-2.18,1.622-3.725,3.672-3.725s3.556,1.545,3.672,3.725c0.004,0.091,0.011,0.179,0.011,0.272
	C137.374,22.12,135.827,23.794,133.691,23.794"/>
<path fill="#FFFFFF" d="M159.465,8.874c-2.595,0-4.437,0.9-5.608,2.699V9.438h-7.095v20.739h7.095V19.064
	c0-2.239,1.465-3.223,2.95-3.223c1.634,0,2.617,1.111,2.617,3.182v11.154h7.449V16.679C166.874,11.909,163.756,8.874,159.465,8.874"
	/>
<path fill="#E0E0DF" d="M15.486,0.335C6.425,0.335,0,6.781,0,15.528h8.266c0-4.478,2.951-7.575,7.22-7.575
	c4.269,0,7.22,3.097,7.22,7.575h8.266C30.972,6.781,24.548,0.335,15.486,0.335"/>
<polygon fill="#E0E0DF" points="40.31,9.438 33.216,9.438 33.216,30.177 40.31,30.177 40.31,19.065 40.31,11.573 "/>
<path fill="#E0E0DF" d="M65.816,8.873c-6.382,0-10.777,4.541-10.777,11.112c0,0.705,0.062,1.379,0.166,2.029h7.535h11.223h2.317
	c0.084-0.418,0.146-1.506,0.146-2.217C76.406,13.31,72.094,8.873,65.816,8.873 M62.761,17.517c0.481-1.611,1.507-2.386,3.097-2.386
	c1.549,0,2.595,0.775,3.139,2.386H62.761z"/>
<polygon fill="#E0E0DF" points="97.329,0.879 86.3,0.879 86.3,30.177 94.253,30.177 94.253,11.845 99.553,30.177 103.21,30.177 
	103.21,18.5 "/>
<path fill="#E0E0DF" d="M133.691,8.874c-6.413,0-11.149,4.494-11.288,10.652h7.616c0.116-2.18,1.622-3.725,3.672-3.725
	s3.556,1.545,3.672,3.725h7.616C144.84,13.367,140.104,8.874,133.691,8.874"/>
<polygon fill="#E0E0DF" points="195.579,0 188.128,0 188.128,30.177 195.579,30.177 195.579,19.065 195.579,11.071 "/>
<path fill="#E0E0DF" d="M172.158,21.472c0,5.085,2.407,8.705,8.308,8.705h5.347v-1v-1.897v-4.028h-3.421
	c-1.611,0-2.783-0.691-2.783-2.931v-4.312h-7.45V21.472z"/>
<path fill="#E0E0DF" d="M159.465,8.874c-2.595,0-4.437,0.9-5.607,2.699v7.492c0-2.239,1.464-3.222,2.949-3.222
	c1.634,0,2.617,1.109,2.617,3.181v11.153h7.449V16.68C166.874,11.907,163.756,8.874,159.465,8.874"/>
</svg>
